<?xml version="1.0" encoding="UTF-8"?>
<svg id="Ebene_1" data-name="Ebene 1" xmlns="http://www.w3.org/2000/svg" viewBox="0 0 638.26 142.94">
  <defs>
    <style>
      .cls-1 {
        fill: #6cb6dd;
      }

      .cls-1, .cls-2, .cls-3, .cls-4, .cls-5 {
        stroke-width: 0px;
      }

      .cls-2 {
        fill: #1d1d1b;
      }

      .cls-3 {
        fill: #be1622;
      }

      .cls-4 {
        fill: #f39200;
      }

      .cls-5 {
        fill: #004f9f;
      }
    </style>
  </defs>
  <g>
    <path class="cls-5" d="M18.55,51.76c-.32,0-.65-.11-.9-.34L.47,36.43c-.3-.26-.47-.64-.47-1.04V1.38C0,.83.32.34.82.12,1.31-.1,1.89,0,2.3.36l35.64,32.29c.29.26.45.63.45,1.02s-.16.76-.45,1.02l-18.46,16.72c-.26.24-.59.36-.92.36ZM2.75,34.77l15.78,13.78,16.43-14.88L2.75,4.48v30.29Z"/>
    <path class="cls-3" d="M1.37,122.59c-.19,0-.38-.04-.56-.12-.5-.22-.82-.71-.82-1.26v-34.02c0-.4.17-.77.47-1.04l17.18-14.99c.53-.46,1.31-.45,1.83.02l18.46,16.72c.29.26.45.63.45,1.02s-.16.76-.45,1.02L2.3,122.23c-.26.23-.59.36-.92.36ZM2.75,87.82v30.29l32.21-29.19-16.43-14.88-15.78,13.78Z"/>
    <path class="cls-1" d="M67.51,62.67H31.05c-.33,0-.65-.12-.9-.34l-12.5-10.91c-.3-.26-.47-.63-.47-1.02,0-.39.16-.77.45-1.03l18.46-16.72c.52-.47,1.32-.47,1.85,0l30.5,27.63c.42.38.56.98.36,1.51-.2.53-.71.88-1.28.88ZM31.57,59.92h32.38l-26.94-24.4-16.39,14.85,10.94,9.55Z"/>
    <path class="cls-4" d="M37.01,90.3c-.33,0-.66-.12-.92-.36l-18.46-16.72c-.29-.26-.46-.64-.45-1.03,0-.39.17-.77.47-1.02l12.5-10.91c.25-.22.57-.34.9-.34h36.46c.57,0,1.08.35,1.28.88.2.53.06,1.13-.36,1.51l-30.5,27.63c-.26.24-.59.36-.92.36ZM20.62,72.22l16.39,14.85,26.94-24.4H31.57l-10.94,9.55Z"/>
  </g>
  <path class="cls-2" d="M89.43,90.67V31.48h11.18v24.33h26.47v-24.33h11.18v59.19h-11.18v-24.42h-26.47v24.42h-11.18Z"/>
  <path class="cls-2" d="M164.98,90.67v-48.75h-18.66v-10.44h48.5v10.44h-18.66v48.75h-11.18Z"/>
  <path class="cls-2" d="M203.7,90.67V31.48h11.18v48.75h25.49v10.44h-36.67Z"/>
  <path class="cls-2" d="M263.46,90.67V31.48h11.18v48.75h25.49v10.44h-36.67Z"/>
  <path class="cls-2" d="M329.23,91.9c-4.55,0-8.56-.98-12.02-2.94-3.47-1.96-6.18-4.66-8.14-8.1-1.96-3.44-2.94-7.38-2.94-11.82,0-4.85.96-9.07,2.88-12.66,1.92-3.59,4.56-6.38,7.93-8.36s7.25-2.98,11.63-2.98c4.66,0,8.62,1.1,11.88,3.29,3.26,2.19,5.67,5.28,7.23,9.25,1.56,3.97,2.11,8.65,1.64,14.02h-11.06v-4.11c0-4.52-.72-7.77-2.16-9.76-1.44-1.99-3.79-2.98-7.05-2.98-3.81,0-6.61,1.16-8.41,3.47-1.8,2.32-2.69,5.73-2.69,10.26,0,4.14.9,7.34,2.69,9.6,1.79,2.26,4.43,3.39,7.91,3.39,2.19,0,4.07-.48,5.63-1.44,1.56-.96,2.75-2.34,3.58-4.15l11.18,3.21c-1.67,4.06-4.31,7.21-7.91,9.45-3.6,2.25-7.54,3.37-11.82,3.37ZM314.51,71.6v-8.3h29.43v8.3h-29.43Z"/>
  <path class="cls-2" d="M380.03,91.9c-4.47,0-8.38-1-11.76-3-3.37-2-6-4.76-7.87-8.28-1.88-3.52-2.82-7.57-2.82-12.15s.96-8.71,2.88-12.23c1.92-3.52,4.56-6.27,7.93-8.24,3.37-1.97,7.25-2.96,11.63-2.96s8.39,1,11.78,3c3.38,2,6.02,4.76,7.91,8.28,1.89,3.52,2.84,7.57,2.84,12.15s-.95,8.67-2.86,12.19c-1.9,3.52-4.55,6.28-7.93,8.26-3.38,1.99-7.3,2.98-11.74,2.98ZM380.03,81.46c3.59,0,6.27-1.21,8.04-3.64,1.77-2.43,2.65-5.54,2.65-9.35s-.9-7.1-2.69-9.45c-1.79-2.36-4.46-3.54-8-3.54-2.44,0-4.44.55-6,1.64-1.56,1.1-2.72,2.62-3.47,4.56s-1.13,4.21-1.13,6.78c0,3.97.9,7.13,2.69,9.47,1.79,2.34,4.43,3.51,7.91,3.51Z"/>
  <path class="cls-2" d="M413,90.67v-44.39h9.95v14.72h1.4v29.68h-11.34ZM443.34,90.67v-20.96c0-1.01-.05-2.31-.16-3.88-.11-1.58-.45-3.16-1.03-4.75-.58-1.59-1.51-2.92-2.82-3.99s-3.14-1.6-5.53-1.6c-.96,0-1.99.15-3.08.45-1.1.3-2.12.88-3.08,1.75-.96.86-1.75,2.13-2.36,3.8-.62,1.67-.92,3.89-.92,6.66l-6.41-3.04c0-3.51.71-6.8,2.14-9.87,1.42-3.07,3.57-5.55,6.43-7.44,2.86-1.89,6.47-2.84,10.83-2.84,3.48,0,6.32.59,8.51,1.77s3.9,2.67,5.12,4.48c1.22,1.81,2.09,3.69,2.61,5.65.52,1.96.84,3.75.95,5.36.11,1.62.17,2.79.17,3.54v24.91h-11.35Z"/>
  <path class="cls-2" d="M484.03,91.9c-4.08,0-7.66-1.03-10.73-3.08s-5.46-4.85-7.17-8.39c-1.71-3.54-2.57-7.52-2.57-11.96s.87-8.54,2.61-12.06c1.74-3.52,4.19-6.3,7.34-8.32,3.15-2.03,6.85-3.04,11.1-3.04s7.77,1.03,10.65,3.08c2.88,2.06,5.06,4.85,6.54,8.39,1.48,3.54,2.22,7.52,2.22,11.96s-.75,8.43-2.24,11.96c-1.49,3.54-3.72,6.33-6.68,8.39-2.96,2.06-6.65,3.08-11.06,3.08ZM485.84,81.96c2.49,0,4.49-.56,5.98-1.69,1.49-1.12,2.57-2.7,3.23-4.73.66-2.03.99-4.38.99-7.07s-.33-5.04-.99-7.07c-.66-2.03-1.71-3.6-3.14-4.73-1.44-1.12-3.32-1.69-5.65-1.69-2.49,0-4.54.61-6.15,1.83-1.6,1.22-2.79,2.85-3.56,4.89s-1.15,4.3-1.15,6.76.37,4.76,1.11,6.8c.74,2.04,1.88,3.67,3.41,4.87,1.53,1.21,3.51,1.81,5.92,1.81ZM496.03,90.67v-30.42h-1.4v-28.77h11.26v59.19h-9.87Z"/>
  <path class="cls-2" d="M519.71,40.11v-9.87h11.18v9.87h-11.18ZM519.71,90.67v-44.39h11.18v44.39h-11.18Z"/>
  <path class="cls-2" d="M544.62,90.67v-44.39h9.95v14.72h1.4v29.68h-11.34ZM574.95,90.67v-20.96c0-1.01-.05-2.31-.16-3.88-.11-1.58-.45-3.16-1.03-4.75-.58-1.59-1.51-2.92-2.82-3.99s-3.14-1.6-5.53-1.6c-.96,0-1.99.15-3.08.45-1.1.3-2.12.88-3.08,1.75-.96.86-1.75,2.13-2.36,3.8-.62,1.67-.92,3.89-.92,6.66l-6.41-3.04c0-3.51.71-6.8,2.14-9.87,1.42-3.07,3.57-5.55,6.43-7.44,2.86-1.89,6.47-2.84,10.83-2.84,3.48,0,6.32.59,8.51,1.77s3.9,2.67,5.12,4.48c1.22,1.81,2.09,3.69,2.61,5.65.52,1.96.84,3.75.95,5.36.11,1.62.17,2.79.17,3.54v24.91h-11.35Z"/>
  <path class="cls-2" d="M616.47,91.9c-4.08,0-7.66-1.03-10.73-3.08s-5.46-4.85-7.17-8.39c-1.71-3.54-2.57-7.52-2.57-11.96s.87-8.54,2.61-12.06c1.74-3.52,4.19-6.3,7.34-8.32,3.15-2.03,6.85-3.04,11.1-3.04s7.77,1.03,10.65,3.08c2.88,2.06,5.06,4.85,6.54,8.39,1.48,3.54,2.22,7.52,2.22,11.96s-.75,8.43-2.24,11.96c-1.49,3.54-3.72,6.33-6.68,8.39-2.96,2.06-6.65,3.08-11.06,3.08ZM617.46,111.63c-2.52,0-4.92-.4-7.19-1.21s-4.31-1.93-6.1-3.37c-1.8-1.44-3.25-3.12-4.38-5.04l10.36-5.02c.71,1.32,1.73,2.32,3.06,3,1.33.68,2.77,1.03,4.34,1.03,1.67,0,3.25-.28,4.73-.84,1.48-.56,2.67-1.4,3.56-2.51s1.31-2.49,1.25-4.13v-12.91h1.4v-34.36h9.78v47.44c0,1.1-.05,2.13-.14,3.1s-.27,1.94-.51,2.9c-.71,2.71-2.03,4.95-3.97,6.7-1.93,1.75-4.29,3.06-7.09,3.93-2.8.86-5.82,1.29-9.08,1.29ZM618.28,81.96c2.49,0,4.49-.56,5.98-1.69,1.49-1.12,2.57-2.7,3.23-4.73.66-2.03.99-4.38.99-7.07s-.33-5.04-.99-7.07c-.66-2.03-1.71-3.6-3.14-4.73-1.44-1.12-3.32-1.69-5.65-1.69-2.49,0-4.54.61-6.15,1.83-1.6,1.22-2.79,2.85-3.56,4.89s-1.15,4.3-1.15,6.76.37,4.76,1.11,6.8c.74,2.04,1.88,3.67,3.41,4.87,1.53,1.21,3.51,1.81,5.92,1.81Z"/>
  <path class="cls-2" d="M88.96,142.23v-25.58h3.13v6.3h.35v19.28h-3.48ZM107.33,142.23v-13.05c0-1.42-.13-2.73-.4-3.92-.27-1.19-.69-2.23-1.28-3.13s-1.35-1.58-2.28-2.07c-.93-.49-2.07-.73-3.4-.73-1.22,0-2.3.21-3.23.64-.93.43-1.72,1.04-2.35,1.84-.63.8-1.12,1.76-1.45,2.9-.33,1.14-.49,2.43-.49,3.88l-2.45-.54c0-2.62.45-4.82,1.36-6.61.91-1.78,2.16-3.13,3.76-4.05,1.6-.92,3.43-1.37,5.5-1.37,1.52,0,2.85.24,3.99.71s2.1,1.11,2.89,1.92,1.43,1.73,1.92,2.76c.49,1.03.84,2.13,1.06,3.29.22,1.16.33,2.32.33,3.47v14.07h-3.48Z"/>
  <path class="cls-2" d="M128.83,142.94c-2.48,0-4.62-.55-6.43-1.66-1.81-1.11-3.22-2.66-4.22-4.67-1-2-1.51-4.36-1.51-7.06s.49-5.21,1.48-7.25c.99-2.04,2.38-3.61,4.17-4.71s3.92-1.66,6.36-1.66,4.65.58,6.42,1.74c1.77,1.16,3.11,2.82,4.02,4.99.91,2.16,1.32,4.75,1.25,7.75h-3.53v-1.23c-.06-3.32-.77-5.82-2.13-7.51s-3.34-2.54-5.94-2.54-4.82.89-6.27,2.68c-1.45,1.79-2.18,4.33-2.18,7.63s.73,5.72,2.18,7.5c1.45,1.78,3.51,2.67,6.17,2.67,1.82,0,3.41-.42,4.76-1.27,1.36-.84,2.43-2.06,3.21-3.66l3.22,1.26c-1,2.23-2.48,3.95-4.43,5.18-1.95,1.22-4.16,1.84-6.62,1.84ZM119.12,130.41v-2.91h19.4v2.91h-19.4Z"/>
  <path class="cls-2" d="M143.13,142.23l9.93-12.93-9.71-12.65h4.14l7.6,9.97,7.53-9.97h4.14l-9.71,12.65,9.95,12.93h-4.16l-7.74-10.26-7.79,10.26h-4.16Z"/>
  <path class="cls-2" d="M169.24,119.63v-2.99h16.65v2.99h-16.65ZM185.89,142.23c-1.43.3-2.83.42-4.22.36-1.39-.06-2.63-.36-3.72-.9-1.09-.54-1.92-1.37-2.48-2.51-.45-.95-.7-1.91-.74-2.88-.04-.97-.06-2.08-.06-3.33v-23.43h3.43v23.28c0,1.07.01,1.97.04,2.69.02.72.18,1.35.48,1.91.56,1.06,1.46,1.69,2.69,1.89,1.23.21,2.76.16,4.57-.14v3.06Z"/>
  <path class="cls-2" d="M203.41,142.23v-34.82h3.46v34.82h-3.46Z"/>
  <path class="cls-2" d="M225.99,142.94c-2.48,0-4.62-.55-6.43-1.66-1.81-1.11-3.22-2.66-4.22-4.67-1-2-1.51-4.36-1.51-7.06s.49-5.21,1.48-7.25c.99-2.04,2.38-3.61,4.17-4.71s3.92-1.66,6.36-1.66,4.65.58,6.42,1.74c1.77,1.16,3.11,2.82,4.02,4.99.91,2.16,1.32,4.75,1.25,7.75h-3.53v-1.23c-.06-3.32-.77-5.82-2.13-7.51s-3.34-2.54-5.94-2.54-4.82.89-6.27,2.68c-1.45,1.79-2.18,4.33-2.18,7.63s.73,5.72,2.18,7.5c1.45,1.78,3.51,2.67,6.17,2.67,1.82,0,3.41-.42,4.76-1.27,1.36-.84,2.43-2.06,3.21-3.66l3.22,1.26c-1,2.23-2.48,3.95-4.43,5.18-1.95,1.22-4.16,1.84-6.62,1.84ZM216.28,130.41v-2.91h19.4v2.91h-19.4Z"/>
  <path class="cls-2" d="M249.98,142.23l-9.22-25.58h3.5l7.5,21.04,7.46-21.04h3.55l-9.22,25.58h-3.58Z"/>
  <path class="cls-2" d="M278.14,142.94c-2.48,0-4.62-.55-6.43-1.66-1.81-1.11-3.22-2.66-4.22-4.67-1-2-1.51-4.36-1.51-7.06s.49-5.21,1.48-7.25c.99-2.04,2.38-3.61,4.17-4.71s3.92-1.66,6.36-1.66,4.65.58,6.42,1.74c1.77,1.16,3.11,2.82,4.02,4.99.91,2.16,1.32,4.75,1.25,7.75h-3.53v-1.23c-.06-3.32-.77-5.82-2.13-7.51s-3.34-2.54-5.94-2.54-4.82.89-6.27,2.68c-1.45,1.79-2.18,4.33-2.18,7.63s.73,5.72,2.18,7.5c1.45,1.78,3.51,2.67,6.17,2.67,1.82,0,3.41-.42,4.76-1.27,1.36-.84,2.43-2.06,3.21-3.66l3.22,1.26c-1,2.23-2.48,3.95-4.43,5.18-1.95,1.22-4.16,1.84-6.62,1.84ZM268.42,130.41v-2.91h19.4v2.91h-19.4Z"/>
  <path class="cls-2" d="M296.67,142.23v-34.82h3.46v34.82h-3.46Z"/>
</svg>